<?xml version="1.0" encoding="UTF-8"?>
<!-- Generator: Adobe Illustrator 16.0.0, SVG Export Plug-In . SVG Version: 6.00 Build 0)  -->
<!DOCTYPE svg PUBLIC "-//W3C//DTD SVG 1.1//EN" "http://www.w3.org/Graphics/SVG/1.1/DTD/svg11.dtd">
<svg version="1.1" id="Layer_1" xmlns="http://www.w3.org/2000/svg" xmlns:xlink="http://www.w3.org/1999/xlink" x="0px" y="0px" width="500px" height="500px" viewBox="0 0 500 500" enable-background="new 0 0 500 500" xml:space="preserve">
<g>
	<g>
		<defs>
			<path id="SVGID_1_" d="M499.628,249.812c0,137.976-111.838,249.815-249.815,249.815C111.838,499.628,0,387.788,0,249.812     C0,111.838,111.838,0,249.812,0C387.79,0,499.628,111.838,499.628,249.812z"/>
		</defs>
		<use xlink:href="#SVGID_1_" overflow="visible" fill="#FF916E"/>
		<clipPath id="SVGID_2_">
			<use xlink:href="#SVGID_1_" overflow="visible"/>
		</clipPath>
		<g clip-path="url(#SVGID_2_)">
			<rect x="166.439" y="405.903" fill="#FFFFFF" width="166.75" height="271.797"/>
			<g>
				<g>
					<path fill="#CCCBCA" d="M189.592,459.274c-5.539,0-10.028,4.488-10.028,10.033V677.7h20.072V469.308       C199.636,463.763,195.141,459.274,189.592,459.274z"/>
					<path fill="#CCCBCA" d="M219.711,459.274c-5.547,0-10.047,4.488-10.047,10.033V677.7h20.072V469.308       C229.737,463.763,225.255,459.274,219.711,459.274z"/>
					<path fill="#CCCBCA" d="M249.817,459.274c-5.541,0-10.029,4.488-10.029,10.033V677.7h20.06V469.308       C259.848,463.763,255.35,459.274,249.817,459.274z"/>
					<path fill="#CCCBCA" d="M279.913,459.274c-5.538,0-10.032,4.488-10.032,10.033V677.7h20.081V469.308       C289.962,463.763,285.461,459.274,279.913,459.274z"/>
					<path fill="#CCCBCA" d="M310.028,459.274c-5.546,0-10.035,4.488-10.035,10.033V677.7h20.072V469.308       C320.065,463.763,315.565,459.274,310.028,459.274z"/>
				</g>
			</g>
			<rect x="166.439" y="369.13" fill="#CCCBCA" width="166.75" height="36.773"/>
			<g>
				<g>
					<path fill="#CCCBCA" d="M203.224,405.903c0,20.318-16.472,36.781-36.785,36.781c-20.313,0-36.786-16.463-36.786-36.781       c0-20.314,16.473-36.773,36.786-36.773C186.752,369.13,203.224,385.589,203.224,405.903z"/>
					<path fill="#FFFFFF" d="M189.837,405.903c0,12.93-10.476,23.395-23.398,23.395c-12.915,0-23.39-10.465-23.39-23.395       c0-12.914,10.476-23.389,23.39-23.389C179.361,382.515,189.837,392.989,189.837,405.903z"/>
					<path fill="#CCCBCA" d="M176.445,405.903c0,5.523-4.478,10.002-10.006,10.002c-5.521,0-10.002-4.479-10.002-10.002       c0-5.521,4.481-10.004,10.002-10.004C171.967,395.899,176.445,400.382,176.445,405.903z"/>
				</g>
				<g>
					<path fill="#CCCBCA" d="M369.968,405.903c0,20.318-16.466,36.781-36.778,36.781c-20.315,0-36.784-16.463-36.784-36.781       c0-20.314,16.469-36.773,36.784-36.773C353.502,369.13,369.968,385.589,369.968,405.903z"/>
					<path fill="#FFFFFF" d="M356.584,405.903c0,12.93-10.477,23.395-23.395,23.395c-12.913,0-23.395-10.465-23.395-23.395       c0-12.914,10.481-23.389,23.395-23.389C346.107,382.515,356.584,392.989,356.584,405.903z"/>
					<path fill="#CCCBCA" d="M343.196,405.903c0,5.523-4.485,10.002-10.007,10.002c-5.522,0-10.01-4.479-10.01-10.002       c0-5.521,4.487-10.004,10.01-10.004C338.711,395.899,343.196,400.382,343.196,405.903z"/>
				</g>
			</g>
			<rect x="129.654" y="349.05" fill="#FFFFFF" width="240.314" height="20.08"/>
		</g>
	</g>
	<g>
		<g>
			<polygon fill="#474F59" points="296.049,266.634 203.521,266.634 185.43,284.712 185.43,338.933 314.12,338.933 314.12,284.712         "/>
			<rect x="216.207" y="287.45" fill="#FFDB79" width="67.145" height="30.646"/>
			<polygon fill="#353F49" points="185.43,284.712 203.521,266.634 185.43,338.933    "/>
			<polygon fill="#353F49" points="314.12,284.712 296.049,266.634 314.12,338.933    "/>
			<rect x="173.889" y="338.933" fill="#353F49" width="151.816" height="10.117"/>
		</g>
		<g>
			<g>
				<g>
					<path fill="#FDCA5C" d="M198.717,177.883l-2.079-7.103c1.925-0.562,3.085-1.557,3.452-2.946       c0.535-2.117-0.656-5.085-2.964-7.398c-2.102-2.123-4.647-4.289-7.398-6.664c-13.77-11.828-34.589-29.703-34.589-68.126v-3.695       h30.896v3.695c0,8.371,6.103,14.669,10.068,14.669v7.382c-7.991,0-15.595-8.49-17.171-18.345h-16.315       c1.238,32.453,18.908,47.631,31.929,58.812c2.889,2.503,5.583,4.804,7.823,7.045c4.215,4.212,6.065,9.758,4.879,14.445       C206.214,173.648,203.205,176.564,198.717,177.883z"/>
					<path fill="#FDCA5C" d="M300.902,177.883l2.078-7.103c-1.929-0.562-3.082-1.557-3.445-2.946       c-0.55-2.117,0.661-5.085,2.954-7.398c2.102-2.123,4.653-4.289,7.412-6.664c13.769-11.828,34.583-29.703,34.583-68.126v-3.695       h-30.897v3.695c0,8.371-6.108,14.669-10.073,14.669v7.382c8.002,0,15.597-8.49,17.165-18.345h16.337       c-1.254,32.453-18.916,47.631-31.941,58.812c-2.89,2.503-5.581,4.804-7.82,7.045c-4.221,4.212-6.081,9.758-4.876,14.445       C293.404,173.648,296.418,176.564,300.902,177.883z"/>
				</g>
			</g>
			<path fill="#FFDB79" d="M305.781,160.688c0,14.327-5.479,28.633-16.403,39.57c-10.917,10.938-25.243,16.39-39.57,16.39l0,0     c-14.325,0-28.651-5.452-39.57-16.39c-10.921-10.937-16.4-25.243-16.4-39.57V73.491h111.943V160.688z"/>
			<rect x="187.994" y="60.478" fill="#FDCA5C" width="123.628" height="13.013"/>
		</g>
		<g>
			<rect x="221.613" y="258.608" fill="#FDCA5C" width="56.402" height="8.025"/>
			<path fill="#FFDB79" d="M254.564,235.086v-8.664h-9.511v8.664c0,12.966-10.478,23.522-23.44,23.522h56.402     C265.033,258.608,254.564,248.052,254.564,235.086z"/>
			<path fill="#FDCA5C" d="M261.863,215.347h-24.106v6.691c0,1.873,0.726,3.739,2.147,5.171c1.425,1.424,3.289,2.126,5.149,2.126     h9.511c1.854,0,3.723-0.703,5.145-2.126c1.428-1.433,2.154-3.298,2.154-5.171V215.347z"/>
		</g>
		<polygon fill="#F77B55" points="283.646,60.478 264.012,60.478 264.012,123.922 273.818,114.108 283.646,123.922   "/>
	</g>
</g>
</svg>