<?xml version="1.0" encoding="UTF-8"?>
<!-- Generator: Adobe Illustrator 16.0.0, SVG Export Plug-In . SVG Version: 6.00 Build 0)  -->
<!DOCTYPE svg PUBLIC "-//W3C//DTD SVG 1.1//EN" "http://www.w3.org/Graphics/SVG/1.1/DTD/svg11.dtd">
<svg version="1.1" id="Your_Icon" xmlns="http://www.w3.org/2000/svg" xmlns:xlink="http://www.w3.org/1999/xlink" x="0px" y="0px" width="66px" height="66.333px" viewBox="18.167 1.167 66 66.333" enable-background="new 18.167 1.167 66 66.333" xml:space="preserve">
<g>
	<g>
		<path d="M51.297,5.725c15.835,0,28.719,12.884,28.719,28.719c0,15.836-12.884,28.72-28.719,28.72    c-15.836,0-28.72-12.884-28.72-28.72C22.577,18.609,35.461,5.725,51.297,5.725 M51.297,2.762    c-17.499,0-31.683,14.185-31.683,31.682c0,17.498,14.184,31.683,31.683,31.683c17.497,0,31.682-14.185,31.682-31.683    C82.979,16.947,68.794,2.762,51.297,2.762L51.297,2.762z"/>
	</g>
	<g>
		<rect x="49.815" y="13.432" transform="matrix(-0.707 -0.7072 0.7072 -0.707 63.3077 94.8269)" width="2.963" height="41.736"/>
	</g>
	<g>
		<rect x="30.427" y="32.818" transform="matrix(-0.7071 -0.7071 0.7071 -0.7071 63.3135 94.8249)" width="41.737" height="2.963"/>
	</g>
</g>
</svg>